<svg width="20" height="20" viewBox="0 0 20 20" fill="none" xmlns="http://www.w3.org/2000/svg">
<circle cx="10" cy="10" r="10" fill="#23D366"/>
<path d="M12.8018 7.1625C12.0536 6.4125 11.0571 6 9.99821 6C7.8125 6 6.03393 7.77857 6.03393 9.96429C6.03393 10.6625 6.21607 11.3446 6.5625 11.9464L6 14L8.10179 13.4482C8.68036 13.7643 9.33214 13.9304 9.99643 13.9304H9.99821C12.1821 13.9304 14 12.1518 14 9.96607C14 8.90714 13.55 7.9125 12.8018 7.1625V7.1625ZM9.99821 13.2625C9.40536 13.2625 8.825 13.1036 8.31964 12.8036L8.2 12.7321L6.95357 13.0589L7.28571 11.8429L7.20714 11.7179C6.87679 11.1929 6.70357 10.5875 6.70357 9.96429C6.70357 8.14821 8.18214 6.66964 10 6.66964C10.8804 6.66964 11.7071 7.0125 12.3286 7.63571C12.95 8.25893 13.3321 9.08571 13.3304 9.96607C13.3304 11.7839 11.8143 13.2625 9.99821 13.2625V13.2625ZM11.8054 10.7946C11.7071 10.7446 11.2196 10.5054 11.1286 10.4732C11.0375 10.4393 10.9714 10.4232 10.9054 10.5232C10.8393 10.6232 10.65 10.8446 10.5911 10.9125C10.5339 10.9786 10.475 10.9875 10.3768 10.9375C9.79464 10.6464 9.4125 10.4179 9.02857 9.75893C8.92679 9.58393 9.13036 9.59643 9.31964 9.21786C9.35179 9.15179 9.33571 9.09464 9.31071 9.04464C9.28571 8.99464 9.0875 8.50714 9.00536 8.30893C8.925 8.11607 8.84286 8.14286 8.78214 8.13929C8.725 8.13571 8.65893 8.13571 8.59286 8.13571C8.52679 8.13571 8.41964 8.16071 8.32857 8.25893C8.2375 8.35893 7.98214 8.59821 7.98214 9.08571C7.98214 9.57321 8.3375 10.0446 8.38571 10.1107C8.43571 10.1768 9.08393 11.1768 10.0786 11.6071C10.7071 11.8786 10.9536 11.9018 11.2679 11.8554C11.4589 11.8268 11.8536 11.6161 11.9357 11.3839C12.0179 11.1518 12.0179 10.9536 11.9929 10.9125C11.9696 10.8679 11.9036 10.8429 11.8054 10.7946Z" fill="#626262"/>
</svg>
